<?xml version="1.0" encoding="UTF-8" standalone="no"?>
<!-- Created with Inkscape (http://www.inkscape.org/) -->

<svg
   xmlns:dc="http://purl.org/dc/elements/1.1/"
   xmlns:cc="http://creativecommons.org/ns#"
   xmlns:rdf="http://www.w3.org/1999/02/22-rdf-syntax-ns#"
   xmlns:svg="http://www.w3.org/2000/svg"
   xmlns="http://www.w3.org/2000/svg"
   xmlns:sodipodi="http://sodipodi.sourceforge.net/DTD/sodipodi-0.dtd"
   xmlns:inkscape="http://www.inkscape.org/namespaces/inkscape"
   version="1.1"
   id="svg2"
   xml:space="preserve"
   width="700"
   height="700"
   viewBox="0 0 699.99999 700"
   sodipodi:docname="cruzeiro-logo.svg"
   inkscape:version="0.92.4 (5da689c313, 2019-01-14)"><metadata
     id="metadata8"><rdf:RDF><cc:Work
         rdf:about=""><dc:format>image/svg+xml</dc:format><dc:type
           rdf:resource="http://purl.org/dc/dcmitype/StillImage" /><dc:title></dc:title></cc:Work></rdf:RDF></metadata><defs
     id="defs6"><clipPath
       clipPathUnits="userSpaceOnUse"
       id="clipPath20"><path
         d="M 0,595.276 H 841.89 V 0 H 0 Z"
         id="path18"
         inkscape:connector-curvature="0" /></clipPath><clipPath
       clipPathUnits="userSpaceOnUse"
       id="clipPath206"><path
         d="M 0,0 H 841.89 V 595.276 H 0 Z"
         id="path204"
         inkscape:connector-curvature="0" /></clipPath><clipPath
       clipPathUnits="userSpaceOnUse"
       id="clipPath254"><path
         d="M 0,0 H 841.89 V 595.276 H 0 Z"
         id="path252"
         inkscape:connector-curvature="0" /></clipPath><clipPath
       clipPathUnits="userSpaceOnUse"
       id="clipPath286"><path
         d="M 0,0 H 841.89 V 595.276 H 0 Z"
         id="path284"
         inkscape:connector-curvature="0" /></clipPath><clipPath
       clipPathUnits="userSpaceOnUse"
       id="clipPath306"><path
         d="M 0,0 H 841.89 V 595.276 H 0 Z"
         id="path304"
         inkscape:connector-curvature="0" /></clipPath><clipPath
       clipPathUnits="userSpaceOnUse"
       id="clipPath326"><path
         d="M 0,0 H 841.89 V 595.276 H 0 Z"
         id="path324"
         inkscape:connector-curvature="0" /></clipPath><clipPath
       clipPathUnits="userSpaceOnUse"
       id="clipPath346"><path
         d="M 0,0 H 841.89 V 595.276 H 0 Z"
         id="path344"
         inkscape:connector-curvature="0" /></clipPath><clipPath
       clipPathUnits="userSpaceOnUse"
       id="clipPath374"><path
         d="M 0,0 H 841.89 V 595.276 H 0 Z"
         id="path372"
         inkscape:connector-curvature="0" /></clipPath><clipPath
       clipPathUnits="userSpaceOnUse"
       id="clipPath422"><path
         d="M 0,0 H 841.89 V 595.276 H 0 Z"
         id="path420"
         inkscape:connector-curvature="0" /></clipPath><clipPath
       clipPathUnits="userSpaceOnUse"
       id="clipPath454"><path
         d="M 0,0 H 841.89 V 595.276 H 0 Z"
         id="path452"
         inkscape:connector-curvature="0" /></clipPath><clipPath
       clipPathUnits="userSpaceOnUse"
       id="clipPath474"><path
         d="M 0,0 H 841.89 V 595.276 H 0 Z"
         id="path472"
         inkscape:connector-curvature="0" /></clipPath><clipPath
       clipPathUnits="userSpaceOnUse"
       id="clipPath494"><path
         d="M 0,0 H 841.89 V 595.276 H 0 Z"
         id="path492"
         inkscape:connector-curvature="0" /></clipPath><clipPath
       clipPathUnits="userSpaceOnUse"
       id="clipPath514"><path
         d="M 0,0 H 841.89 V 595.276 H 0 Z"
         id="path512"
         inkscape:connector-curvature="0" /></clipPath></defs><sodipodi:namedview
     pagecolor="#ffffff"
     bordercolor="#666666"
     borderopacity="1"
     objecttolerance="10"
     gridtolerance="10"
     guidetolerance="10"
     inkscape:pageopacity="0"
     inkscape:pageshadow="2"
     inkscape:window-width="1600"
     inkscape:window-height="837"
     id="namedview4"
     showgrid="false"
     inkscape:zoom="0.42050376"
     inkscape:cx="415.78555"
     inkscape:cy="236.05189"
     inkscape:window-x="-8"
     inkscape:window-y="-8"
     inkscape:window-maximized="1"
     inkscape:current-layer="g10" /><g
     id="g10"
     inkscape:groupmode="layer"
     inkscape:label="cruzeiro-logo"
     transform="matrix(1.3333333,0,0,-1.3333333,0,699.99998)"><g
       id="g12"
       transform="matrix(2.4832558,0,0,2.4832558,-1305.9887,-545.41834)" /><g
       id="g368"
       transform="matrix(2.4832558,0,0,2.4832558,-1305.9887,-545.41834)"><g
         id="g370"
         clip-path="url(#clipPath374)"><g
           id="g376"
           transform="translate(631.8066,375.5692)"><path
             d="M 0,0 V 0.004 H -0.004 -0.359 -0.364 V 0 c -1.238,-0.012 -4.306,-0.15 -4.639,-0.2 -5.805,-0.468 -11.43,-1.728 -16.681,-3.643 0.193,-0.218 1.375,-1.485 2.07,-2.424 6.119,1.986 12.647,3.079 19.423,3.094 h 0.004 0.005 0.002 0.005 0.003 c 6.777,-0.015 13.303,-1.108 19.424,-3.094 0.694,0.939 1.878,2.206 2.072,2.424 C 16.07,-1.928 10.45,-0.668 4.645,-0.2 4.306,-0.15 1.241,-0.012 0,0 m -16.634,-4.631 c -0.439,0 -0.794,0.35 -0.794,0.788 0,0.437 0.355,0.786 0.794,0.786 0.432,0 0.788,-0.349 0.788,-0.786 0,-0.438 -0.356,-0.788 -0.788,-0.788 m 5.652,1.323 -2.746,0.249 2.3,1.154 2.792,-0.19 z m 6.46,1.473 -0.171,-0.53 C -4.705,-2.4 -4.729,-2.426 -4.765,-2.444 l -0.49,-0.248 C -5.269,-2.701 -5.29,-2.704 -5.309,-2.704 h -0.016 c 0,-0.006 -0.008,-0.009 -0.017,-0.009 -0.015,0 -0.029,0 -0.045,0.009 l -0.507,0.164 c -0.037,0.015 -0.063,0.038 -0.078,0.071 l -0.244,0.475 c -0.007,0.02 -0.013,0.042 -0.013,0.066 0,0.021 0,0.044 0.006,0.067 l 0.17,0.531 c 0.011,0.03 0.042,0.061 0.072,0.076 l 0.492,0.251 c 0.017,0.007 0.035,0.012 0.055,0.012 0.015,0.004 0.032,0 0.051,-0.005 l 0.527,-0.176 c 0.034,-0.01 0.062,-0.033 0.077,-0.066 l 0.249,-0.495 c 0.018,-0.034 0.023,-0.07 0.008,-0.102 m 3.386,-0.557 0.938,1.603 0.94,-1.603 z m 17.409,-0.665 c 0.435,0 0.79,-0.349 0.79,-0.786 0,-0.438 -0.355,-0.788 -0.79,-0.788 -0.432,0 -0.792,0.35 -0.792,0.788 0,0.437 0.36,0.786 0.792,0.786 m -5.208,1.152 2.301,-1.154 -2.746,-0.249 -2.345,1.213 z M 5.07,-0.991 c 0.022,0 0.043,-0.005 0.058,-0.012 L 5.619,-1.254 C 5.648,-1.269 5.682,-1.3 5.691,-1.33 l 0.17,-0.531 c 0.006,-0.023 0.006,-0.046 0.006,-0.067 0,-0.024 -0.006,-0.046 -0.015,-0.066 L 5.611,-2.469 C 5.595,-2.502 5.568,-2.525 5.533,-2.54 L 5.024,-2.704 C 5.01,-2.713 4.994,-2.713 4.98,-2.713 c -0.01,0 -0.017,0.003 -0.017,0.009 H 4.947 c -0.019,0 -0.037,0.003 -0.054,0.012 L 4.402,-2.444 C 4.365,-2.426 4.343,-2.4 4.332,-2.365 l -0.174,0.53 c -0.015,0.032 -0.007,0.068 0.009,0.102 l 0.249,0.495 c 0.016,0.033 0.044,0.056 0.08,0.066 l 0.525,0.176 c 0.02,0.005 0.036,0.009 0.049,0.005"
             style="fill:#efb81d;fill-opacity:1;fill-rule:nonzero;stroke:none"
             id="path378"
             inkscape:connector-curvature="0" /></g><g
           id="g380"
           transform="translate(644.3986,390.7122)"><path
             d="m 0,0 c -2.162,3.34 -6.708,5.751 -11.504,5.898 -0.156,0.251 -0.381,0.451 -0.652,0.574 v 1.37 h 1.232 v 1.164 h -1.232 v 1.384 h -0.616 -0.002 -0.613 V 9.006 h -1.234 V 7.842 h 1.234 V 6.472 C -13.66,6.349 -13.888,6.148 -14.043,5.898 -18.836,5.751 -23.385,3.34 -25.546,0 c -15.599,-1.047 -13.872,-11.862 -13.855,-12.011 0.265,-2.087 1.472,-4.112 3.483,-5.645 0.345,-0.285 0.684,-0.519 1.019,-0.731 3.362,1.25 7.894,2.638 12.851,3.357 3.115,0.451 6.276,0.676 9.275,0.77 2.998,-0.094 6.161,-0.319 9.275,-0.77 4.959,-0.719 9.488,-2.107 12.852,-3.357 0.336,0.212 0.673,0.446 1.02,0.731 2.008,1.533 3.217,3.558 3.482,5.645 C 13.873,-11.862 15.6,-1.047 0,0 m 0.2,-5.667 c -1.518,6.909 -7.476,8.626 -10.769,9.181 -0.023,0.147 -0.098,0.569 -0.127,0.709 C -0.034,2.781 0.2,-5.667 0.2,-5.667 m -15.05,9.89 c -0.029,-0.14 -0.104,-0.562 -0.126,-0.709 -3.296,-0.555 -9.253,-2.272 -10.769,-9.181 0,0 0.232,8.448 10.895,9.89 M -36.704,-11.12 c -0.295,-0.068 -0.559,-0.214 -0.789,-0.41 -0.082,1.619 0.422,3.259 1.509,4.871 3.321,4.614 9.75,4.645 9.75,4.645 -0.063,-0.003 -6.392,-0.705 -8.987,-4.7 -1.05,-1.609 -1.54,-3.092 -1.483,-4.406 m 6.904,-3.673 c 0.32,1.417 -0.656,2.525 -2.125,2.174 -1.206,-0.285 -1.964,-1.941 -0.578,-2.955 -0.496,-1.834 -3.07,-1.149 -2.585,0.209 0.147,0.328 0.279,0.594 0.394,0.83 0.225,0.359 0.364,0.793 0.364,1.267 0,0.955 -0.551,1.76 -1.315,2.061 0.868,5.037 4.887,7.167 8.785,7.864 -0.615,-1.519 -0.691,-4.648 -0.691,-4.663 -0.003,-0.002 -0.004,-0.003 -0.005,-0.005 -1.017,-0.54 -1.705,-1.549 -1.705,-2.704 0,-1.181 0.714,-2.208 1.766,-2.74 0.076,-0.039 0.135,-0.039 0.153,-0.182 0.37,-1.499 -1.817,-2.317 -2.458,-1.156 m 4.031,2.631 c -0.799,0 -1.449,0.623 -1.449,1.392 0,0.77 0.65,1.394 1.449,1.394 0.8,0 1.448,-0.624 1.448,-1.394 0,-0.769 -0.648,-1.392 -1.448,-1.392 m 8.992,0.323 c 0.679,1.173 -0.114,2.925 -1.897,2.84 -1.703,-0.08 -2.643,-1.889 -1.52,-3.141 -0.669,-1.214 -2.052,-1.234 -2.824,-0.29 0.355,0.492 0.561,1.081 0.561,1.715 0,0.273 -0.043,0.536 -0.114,0.79 -10e-4,0.007 -0.003,0.013 -0.005,0.019 -0.002,0.009 -0.005,0.014 -0.007,0.021 -0.031,0.102 -0.066,0.201 -0.107,0.298 -0.202,0.502 -0.534,0.923 -0.953,1.241 -0.432,0.338 -0.952,0.581 -1.528,0.691 0.977,5.331 4.048,8.255 10.157,9.102 0.178,-1.571 0.703,-2.814 1.521,-3.203 0.294,-0.633 -0.402,-1.023 -0.507,-1.085 -0.964,-0.611 -1,-2.122 0.062,-2.694 -2.719,-0.531 -3.238,-4.873 -0.382,-6.269 -0.941,-1.012 -2.395,-0.681 -2.457,-0.035 m 4.005,1.223 c -1.017,0 -1.843,0.895 -1.843,2.001 0,1.104 0.826,2.001 1.843,2.001 1.017,0 1.844,-0.897 1.844,-2.001 0,-1.106 -0.827,-2.001 -1.844,-2.001 m 9.914,1.029 c -0.04,-0.097 -0.076,-0.196 -0.104,-0.298 -0.005,-0.007 -0.006,-0.012 -0.007,-0.021 -0.004,-0.006 -0.005,-0.012 -0.005,-0.019 -0.073,-0.254 -0.116,-0.517 -0.116,-0.79 0,-0.634 0.207,-1.223 0.56,-1.715 -0.769,-0.944 -2.151,-0.924 -2.822,0.29 1.124,1.252 0.18,3.061 -1.521,3.141 -1.782,0.085 -2.574,-1.667 -1.895,-2.84 -0.062,-0.646 -1.517,-0.977 -2.457,0.035 2.856,1.396 2.337,5.738 -0.384,6.269 1.063,0.572 1.027,2.083 0.065,2.694 -0.106,0.062 -0.802,0.452 -0.511,1.085 0.822,0.389 1.344,1.632 1.524,3.203 C -4.423,0.6 -1.352,-2.324 -0.376,-7.655 -0.95,-7.765 -1.472,-8.008 -1.9,-8.346 -2.322,-8.664 -2.654,-9.085 -2.858,-9.587 m 3.082,-2.575 c -0.802,0 -1.45,0.623 -1.45,1.392 0,0.77 0.648,1.394 1.45,1.394 0.802,0 1.449,-0.624 1.449,-1.394 0,-0.769 -0.647,-1.392 -1.449,-1.392 m 8.927,-2.373 c 0.112,-0.236 0.246,-0.502 0.393,-0.83 0.483,-1.358 -2.093,-2.043 -2.585,-0.209 1.386,1.014 0.626,2.67 -0.578,2.955 -1.47,0.351 -2.447,-0.757 -2.127,-2.174 -0.641,-1.161 -2.827,-0.343 -2.458,1.156 0.018,0.143 0.077,0.143 0.153,0.182 1.053,0.532 1.766,1.559 1.766,2.74 0,1.155 -0.685,2.164 -1.704,2.704 -0.001,0.002 -0.002,0.003 -0.004,0.005 0,0.015 -0.078,3.144 -0.694,4.663 3.902,-0.697 7.918,-2.827 8.79,-7.864 -0.767,-0.301 -1.318,-1.106 -1.318,-2.061 0,-0.474 0.136,-0.908 0.366,-1.267 m 2.796,3.005 c -0.228,0.196 -0.493,0.342 -0.788,0.41 0.056,1.314 -0.435,2.797 -1.484,4.406 -2.593,3.995 -8.924,4.697 -8.986,4.7 0,0 6.428,-0.031 9.749,-4.645 1.088,-1.612 1.594,-3.252 1.509,-4.871"
             style="fill:#efb81d;fill-opacity:1;fill-rule:nonzero;stroke:none"
             id="path382"
             inkscape:connector-curvature="0" /></g><g
           id="g384"
           transform="translate(691.9243,310.1047)"><path
             d="m 0,0 c 0,-33.304 -26.995,-60.299 -60.297,-60.299 -33.303,0 -60.298,26.995 -60.298,60.299 0,33.301 26.995,60.298 60.298,60.298 C -26.995,60.298 0,33.301 0,0"
             style="fill:#ffffff;fill-opacity:1;fill-rule:nonzero;stroke:none"
             id="path386"
             inkscape:connector-curvature="0" /></g><g
           id="g388"
           transform="translate(674.5409,352.8586)"><path
             d="m 0,0 c -11.002,10.961 -26.188,17.758 -42.914,17.758 h -0.003 C -59.641,17.756 -74.828,10.961 -85.831,0.001 -96.837,-10.962 -103.66,-26.09 -103.66,-42.754 v -0.001 c 10e-4,-16.664 6.823,-31.792 17.829,-42.755 11.003,-10.961 26.191,-17.758 42.914,-17.758 h 0.003 0.001 c 16.725,0 31.911,6.797 42.913,17.757 11.007,10.964 17.83,26.092 17.83,42.757 C 17.83,-26.088 11.007,-10.962 0,0 m 16.041,-42.754 v 0 c 0,-16.172 -6.62,-30.855 -17.298,-41.491 -10.68,-10.637 -25.419,-17.233 -41.656,-17.233 h -0.001 -0.003 c -16.237,0 -30.977,6.596 -41.656,17.234 -10.679,10.635 -17.3,25.315 -17.3,41.489 v 0.001 c 0,16.172 6.621,30.853 17.3,41.489 10.679,10.638 25.419,17.234 41.656,17.234 h 0.003 c 16.238,0 30.977,-6.596 41.657,-17.235 10.678,-10.635 17.298,-25.316 17.298,-41.488"
             style="fill:#0063af;fill-opacity:1;fill-rule:nonzero;stroke:none"
             id="path390"
             inkscape:connector-curvature="0" /></g><g
           id="g392"
           transform="translate(631.6255,352.5989)"><path
             d="m 0,0 c -23.291,0 -42.288,-19.089 -42.288,-42.494 0,-23.406 18.997,-42.496 42.288,-42.496 23.291,0 42.292,19.09 42.292,42.496 C 42.292,-19.089 23.291,0 0,0"
             style="fill:#0063af;fill-opacity:1;fill-rule:nonzero;stroke:none"
             id="path394"
             inkscape:connector-curvature="0" /></g></g></g><g
       id="g396"
       transform="matrix(2.4832558,0,0,2.4832558,265.14137,171.91505)"><path
         d="M 0,0 1.657,-5.096 H 7.013 L 2.68,-8.243 4.334,-13.338 0,-10.19 l -4.333,-3.148 1.656,5.095 h -10e-4 l -4.332,3.147 h 5.357 z"
         style="fill:#ffffff;fill-opacity:1;fill-rule:nonzero;stroke:none"
         id="path398"
         inkscape:connector-curvature="0" /></g><g
       id="g400"
       transform="matrix(2.4832558,0,0,2.4832558,321.81821,259.92437)"><path
         d="m 0,0 1.654,-5.093 h 5.36 l -4.336,-3.15 1.655,-5.096 -4.333,3.15 -4.334,-3.15 1.655,5.096 -4.333,3.15 h 5.357 z"
         style="fill:#ffffff;fill-opacity:1;fill-rule:nonzero;stroke:none"
         id="path402"
         inkscape:connector-curvature="0" /></g><g
       id="g404"
       transform="matrix(2.4832558,0,0,2.4832558,279.72951,234.70243)"><path
         d="M 0,0 1.23,-3.791 H 5.219 L 1.994,-6.134 3.226,-9.927 0,-7.583 l -3.225,-2.344 1.231,3.793 -3.223,2.343 h 3.986 z"
         style="fill:#ffffff;fill-opacity:1;fill-rule:nonzero;stroke:none"
         id="path406"
         inkscape:connector-curvature="0" /></g><g
       id="g408"
       transform="matrix(2.4832558,0,0,2.4832558,262.54661,312.41791)"><path
         d="M 0,0 1.657,-5.093 H 7.013 L 2.68,-8.243 4.334,-13.338 0,-10.19 l -4.333,-3.148 1.655,5.095 -4.334,3.15 h 5.356 z"
         style="fill:#ffffff;fill-opacity:1;fill-rule:nonzero;stroke:none"
         id="path410"
         inkscape:connector-curvature="0" /></g><g
       id="g412"
       transform="matrix(2.4832558,0,0,2.4832558,204.84345,260.98397)"><path
         d="M 0,0 1.656,-5.095 H 7.013 L 2.679,-8.243 4.336,-13.336 0,-10.19 l -4.334,-3.146 1.656,5.093 -4.334,3.148 h 5.358 z"
         style="fill:#ffffff;fill-opacity:1;fill-rule:nonzero;stroke:none"
         id="path414"
         inkscape:connector-curvature="0" /></g><g
       id="g416"
       transform="matrix(2.4832558,0,0,2.4832558,-1305.9887,-545.41834)"><g
         id="g418"
         clip-path="url(#clipPath422)"><g
           id="g424"
           transform="translate(589.745,340.8844)"><path
             d="m 0,0 c -0.39,0.183 -1.648,0.633 -2.482,-0.607 -0.941,-1.403 0.119,-2.766 1.427,-3.644 1.307,-0.878 2.971,-1.342 3.912,0.061 0.677,1.007 0.233,1.877 -0.559,2.667 l 1.976,2.942 c 1.961,-1.316 2.974,-4.31 1.064,-7.156 -2.113,-3.146 -5.532,-3.439 -8.405,-1.509 -3.065,2.057 -3.795,5.353 -1.783,8.349 1.805,2.66 4.196,3.189 6.809,1.81 z"
             style="fill:#0063af;fill-opacity:1;fill-rule:nonzero;stroke:none"
             id="path426"
             inkscape:connector-curvature="0" /></g><g
           id="g428"
           transform="translate(592.4985,350.9416)"><path
             d="m 0,0 5.355,4.307 c 1.597,1.285 3.687,1.515 5.075,-0.211 0.761,-0.945 1.128,-2.292 0.472,-3.387 1.003,0.323 2.155,-0.14 3.173,-1.196 0.396,-0.415 1.283,-1.491 1.88,-1.708 l -2.812,-2.26 c -0.509,0.346 -0.941,0.778 -1.362,1.219 -0.775,0.808 -1.58,1.653 -2.692,0.758 L 7.593,-3.681 10.154,-6.862 7.342,-9.124 Z m 6.019,-1.726 1.47,1.182 C 8.013,-0.121 8.656,0.543 7.999,1.36 7.535,1.937 6.949,2.011 5.876,1.147 L 4.56,0.089 Z"
             style="fill:#0063af;fill-opacity:1;fill-rule:nonzero;stroke:none"
             id="path430"
             inkscape:connector-curvature="0" /></g><g
           id="g432"
           transform="translate(618.911,358)"><path
             d="m 0,0 c 1.18,-3.026 0.112,-5.114 -3.22,-6.414 -3.331,-1.301 -5.548,-0.492 -6.727,2.534 l -2.611,6.693 3.361,1.31 2.319,-5.944 c 0.433,-1.114 0.978,-2.506 2.612,-1.868 1.591,0.621 1.047,2.01 0.613,3.126 l -2.321,5.944 3.363,1.312 z"
             style="fill:#0063af;fill-opacity:1;fill-rule:nonzero;stroke:none"
             id="path434"
             inkscape:connector-curvature="0" /></g></g></g><g
       id="g436"
       transform="matrix(2.4832558,0,0,2.4832558,241.00313,341.51621)"><path
         d="M 0,0 5.002,6.27 -0.12,5.896 -0.337,8.889 9.528,9.609 9.719,6.992 4.682,0.522 10.423,0.941 10.641,-2.051 0.204,-2.813 Z"
         style="fill:#0063af;fill-opacity:1;fill-rule:nonzero;stroke:none"
         id="path438"
         inkscape:connector-curvature="0" /></g><g
       id="g440"
       transform="matrix(2.4832558,0,0,2.4832558,280.2798,364.24321)"><path
         d="M 0,0 9.475,-2.061 8.835,-4.994 2.889,-3.7 2.579,-5.129 7.981,-6.302 7.388,-9.027 1.986,-7.853 1.676,-9.28 l 6.125,-1.331 -0.639,-2.934 -9.65,2.098 z"
         style="fill:#0063af;fill-opacity:1;fill-rule:nonzero;stroke:none"
         id="path442"
         inkscape:connector-curvature="0" /></g><g
       id="g444"
       transform="matrix(2.4832558,0,0,2.4832558,317.29173,353.67174)"><path
         d="m 0,0 3.268,-1.531 -4.968,-10.608 -3.268,1.53 z"
         style="fill:#0063af;fill-opacity:1;fill-rule:nonzero;stroke:none"
         id="path446"
         inkscape:connector-curvature="0" /></g><g
       id="g448"
       transform="matrix(2.4832558,0,0,2.4832558,-1305.9887,-545.41834)"><g
         id="g450"
         clip-path="url(#clipPath454)"><g
           id="g456"
           transform="translate(662.1696,357.7587)"><path
             d="m 0,0 5.405,-4.242 c 1.613,-1.265 2.308,-3.249 0.941,-4.991 -0.75,-0.955 -1.979,-1.616 -3.193,-1.226 0.54,-0.905 0.349,-2.129 -0.449,-3.358 -0.317,-0.484 -1.164,-1.589 -1.239,-2.218 l -2.838,2.229 c 0.223,0.576 0.545,1.093 0.882,1.601 0.611,0.938 1.252,1.913 0.13,2.796 l -1.51,1.184 -2.522,-3.213 -2.837,2.23 z m -0.321,-6.252 1.484,-1.164 c 0.53,-0.415 1.321,-0.892 1.969,-0.067 0.457,0.582 0.398,1.169 -0.686,2.021 l -1.329,1.043 z"
             style="fill:#0063af;fill-opacity:1;fill-rule:nonzero;stroke:none"
             id="path458"
             inkscape:connector-curvature="0" /></g><g
           id="g460"
           transform="translate(678.3562,341.9826)"><path
             d="m 0,0 c 2,-2.944 1.219,-6.348 -1.738,-8.358 -2.958,-2.009 -6.411,-1.48 -8.409,1.464 -2.001,2.945 -1.22,6.349 1.738,8.358 C -5.452,3.473 -2,2.943 0,0 m -7.733,-5.254 c 0.517,-0.759 1.811,-1.585 3.967,-0.118 2.159,1.464 1.866,2.972 1.35,3.732 -0.515,0.759 -1.809,1.584 -3.967,0.119 -2.157,-1.466 -1.866,-2.972 -1.35,-3.733"
             style="fill:#0063af;fill-opacity:1;fill-rule:nonzero;stroke:none"
             id="path462"
             inkscape:connector-curvature="0" /></g></g></g><g
       id="g464"
       transform="matrix(2.4832558,0,0,2.4832558,374.12973,221.13591)"><path
         d="M 0,0 -0.728,9.668 2.266,9.893 2.723,3.825 4.179,3.934 3.763,9.447 6.545,9.657 6.96,4.143 8.414,4.254 7.945,10.501 10.939,10.727 11.681,0.88 Z"
         style="fill:#0063af;fill-opacity:1;fill-rule:nonzero;stroke:none"
         id="path466"
         inkscape:connector-curvature="0" /></g><g
       id="g468"
       transform="matrix(2.4832558,0,0,2.4832558,-1305.9887,-545.41834)"><g
         id="g470"
         clip-path="url(#clipPath474)"><g
           id="g476"
           transform="translate(674.2648,295.6181)"><path
             d="M 0,0 1.348,6.272 C 1.995,9.286 3.834,9.563 5.003,9.311 6.157,9.064 6.664,8.367 6.946,7.418 c 0.573,0.95 1.597,1.737 3.282,1.374 2.293,-0.493 3.053,-2.736 2.62,-4.757 L 11.449,-2.46 Z m 5.216,2.571 0.402,1.86 C 5.775,5.17 5.667,5.678 4.93,5.836 4.352,5.96 4.041,5.525 3.885,4.802 l -0.4,-1.86 z M 9.483,1.654 9.927,3.722 C 10.086,4.46 10.014,5.147 9.133,5.337 8.459,5.481 8.004,5.158 7.824,4.325 L 7.349,2.113 Z"
             style="fill:#0063af;fill-opacity:1;fill-rule:nonzero;stroke:none"
             id="path478"
             inkscape:connector-curvature="0" /></g><g
           id="g480"
           transform="translate(679.5024,289.3026)"><path
             d="m 0,0 c 2.835,-1.588 3.335,-3.882 1.586,-7.002 -1.749,-3.119 -3.975,-3.904 -6.809,-2.315 l -6.268,3.514 1.764,3.147 5.568,-3.119 c 1.044,-0.587 2.347,-1.316 3.205,0.215 0.834,1.49 -0.467,2.219 -1.511,2.804 l -5.568,3.121 1.764,3.148 z"
             style="fill:#0063af;fill-opacity:1;fill-rule:nonzero;stroke:none"
             id="path482"
             inkscape:connector-curvature="0" /></g></g></g><g
       id="g484"
       transform="matrix(2.4832558,0,0,2.4832558,333.20766,138.08615)"><path
         d="m 0,0 2.556,2.549 6.147,-6.17 3.672,3.66 2.118,-2.126 -6.227,-6.206 z"
         style="fill:#0063af;fill-opacity:1;fill-rule:nonzero;stroke:none"
         id="path486"
         inkscape:connector-curvature="0" /></g><g
       id="g488"
       transform="matrix(2.4832558,0,0,2.4832558,-1305.9887,-545.41834)"><g
         id="g490"
         clip-path="url(#clipPath494)"><g
           id="g496"
           transform="translate(657.089,267.9381)"><path
             d="m 0,0 c -0.264,0.341 -1.179,1.315 -2.485,0.591 -1.477,-0.818 -1.156,-2.515 -0.391,-3.892 0.762,-1.377 2.031,-2.55 3.508,-1.732 1.063,0.592 1.065,1.566 0.718,2.63 l 3.098,1.719 c 1.146,-2.065 0.684,-5.191 -2.314,-6.853 -3.313,-1.837 -6.489,-0.54 -8.166,2.486 -1.79,3.227 -0.937,6.495 2.218,8.243 2.82,1.545 5.187,0.926 6.883,-1.49 z"
             style="fill:#0063af;fill-opacity:1;fill-rule:nonzero;stroke:none"
             id="path498"
             inkscape:connector-curvature="0" /></g></g></g><g
       id="g500"
       transform="matrix(2.4832558,0,0,2.4832558,257.32781,112.5615)"><path
         d="m 0,0 9.675,0.595 0.186,-2.996 -6.076,-0.374 0.092,-1.457 5.517,0.341 0.172,-2.784 -5.518,-0.34 0.089,-1.456 6.255,0.383 0.183,-2.996 -9.855,-0.606 z"
         style="fill:#0063af;fill-opacity:1;fill-rule:nonzero;stroke:none"
         id="path502"
         inkscape:connector-curvature="0" /></g><g
       id="g504"
       transform="matrix(2.4832558,0,0,2.4832558,232.88487,109.32483)"><path
         d="M 0,0 -3.205,0.704 -2.562,3.636 7.373,1.456 6.731,-1.477 3.525,-0.775 1.658,-9.283 -1.868,-8.51 Z"
         style="fill:#0063af;fill-opacity:1;fill-rule:nonzero;stroke:none"
         id="path506"
         inkscape:connector-curvature="0" /></g><g
       id="g508"
       transform="matrix(2.4832558,0,0,2.4832558,-1305.9887,-545.41834)"><g
         id="g510"
         clip-path="url(#clipPath514)"><g
           id="g516"
           transform="translate(605.7771,273.1172)"><path
             d="M 0,0 6.025,-3.305 C 7.824,-4.289 8.833,-6.134 7.768,-8.077 7.183,-9.139 6.08,-9.994 4.817,-9.807 5.5,-10.611 5.51,-11.853 4.922,-13.195 4.69,-13.722 4.033,-14.953 4.061,-15.584 l -3.163,1.734 c 0.125,0.605 0.36,1.167 0.607,1.724 0.452,1.025 0.924,2.095 -0.327,2.78 l -1.682,0.924 -1.965,-3.582 -3.164,1.735 z M 0.701,-6.222 2.356,-7.13 c 0.589,-0.323 1.45,-0.665 1.955,0.259 0.355,0.644 0.201,1.217 -1.006,1.879 l -1.482,0.811 z"
             style="fill:#0063af;fill-opacity:1;fill-rule:nonzero;stroke:none"
             id="path518"
             inkscape:connector-curvature="0" /></g><g
           id="g520"
           transform="translate(599.6627,279.1333)"><path
             d="m 0,0 c 2.465,-2.568 2.266,-6.056 -0.313,-8.532 -2.58,-2.476 -6.072,-2.533 -8.538,0.035 -2.465,2.57 -2.266,6.056 0.312,8.534 C -5.957,2.511 -2.465,2.568 0,0 m -6.745,-6.475 c 0.636,-0.662 2.051,-1.26 3.932,0.548 1.883,1.804 1.344,3.242 0.708,3.905 -0.637,0.662 -2.052,1.26 -3.933,-0.546 -1.882,-1.806 -1.343,-3.244 -0.707,-3.907"
             style="fill:#0063af;fill-opacity:1;fill-rule:nonzero;stroke:none"
             id="path522"
             inkscape:connector-curvature="0" /></g><g
           id="g524"
           transform="translate(589.5487,294.1488)"><path
             d="m 0,0 2.724,-5.385 c 1.436,-2.839 -0.136,-4.885 -1.63,-5.639 -2.531,-1.282 -4.575,-0.186 -5.79,2.215 l -0.964,1.901 -3.16,-1.598 -1.629,3.218 z m -3.172,-5.649 0.63,-1.242 c 0.421,-0.835 0.926,-1.682 1.98,-1.15 0.95,0.482 0.638,1.242 0.239,2.033 l -0.726,1.435 z"
             style="fill:#0063af;fill-opacity:1;fill-rule:nonzero;stroke:none"
             id="path526"
             inkscape:connector-curvature="0" /></g><g
           id="g528"
           transform="translate(579.7902,301.6102)"><path
             d="m 0,0 c -0.289,-0.056 -0.537,-0.156 -0.731,-0.277 -0.642,-0.393 -0.636,-1.194 -0.506,-1.854 0.112,-0.58 0.478,-1.427 1.331,-1.259 0.596,0.115 0.66,0.645 0.837,2.737 0.16,1.92 0.253,4.094 2.573,4.547 C 6.161,4.412 7.747,2.366 8.209,-0.001 8.697,-2.497 8.176,-4.888 5.393,-5.532 L 4.74,-2.183 c 0.448,0.019 0.699,0.27 0.837,0.597 0.152,0.331 0.153,0.749 0.085,1.103 C 5.567,0.001 5.284,0.765 4.64,0.64 3.832,0.415 3.975,-1.264 3.842,-2.977 3.709,-4.692 3.267,-6.449 1.156,-6.861 c -2.994,-0.585 -4.497,1.979 -4.998,4.54 -0.254,1.304 -0.514,5.114 3.15,5.864 z"
             style="fill:#0063af;fill-opacity:1;fill-rule:nonzero;stroke:none"
             id="path530"
             inkscape:connector-curvature="0" /></g></g></g><g
       id="g532"
       transform="matrix(2.4832558,0,0,2.4832558,152.79267,245.71319)"><path
         d="m 0,0 -0.782,-9.664 -2.991,0.242 0.49,6.067 -1.457,0.118 -0.444,-5.511 -2.781,0.224 0.446,5.511 -1.455,0.117 -0.506,-6.246 -2.99,0.243 0.794,9.843 z"
         style="fill:#0063af;fill-opacity:1;fill-rule:nonzero;stroke:none"
         id="path534"
         inkscape:connector-curvature="0" /></g></g></svg>